{
    "format": {
        "bit_rate": "100350607",
        "duration": "29.760000",
        "filename": "C:/Footages/import_test/C0031.MP4",
        "format_long_name": "QuickTime / MOV",
        "format_name": "mov,mp4,m4a,3gp,3g2,mj2",
        "nb_programs": 0,
        "nb_streams": 3,
        "probe_score": 100,
        "size": "373304260",
        "start_time": "0.000000",
        "tags": {
            "compatible_brands": "XAVCmp42iso2",
            "creation_time": "2018-01-17T11:41:58.000000Z",
            "major_brand": "XAVC",
            "minor_version": "16785407"
        }
    },
    "streams": [
        {
            "avg_frame_rate": "25/1",
            "bit_rate": "98222952",
            "bits_per_raw_sample": "8",
            "chroma_location": "left",
            "codec_long_name": "H.264 / AVC / MPEG-4 AVC / MPEG-4 part 10",
            "codec_name": "h264",
            "codec_tag": "0x31637661",
            "codec_tag_string": "avc1",
            "codec_time_base": "1/50",
            "codec_type": "video",
            "coded_height": 2160,
            "coded_width": 3840,
            "color_primaries": "bt709",
            "color_range": "tv",
            "color_space": "bt709",
            "color_transfer": "iec61966-2-4",
            "display_aspect_ratio": "16:9",
            "disposition": {
                "attached_pic": 0,
                "clean_effects": 0,
                "comment": 0,
                "default": 1,
                "dub": 0,
                "forced": 0,
                "hearing_impaired": 0,
                "karaoke": 0,
                "lyrics": 0,
                "original": 0,
                "timed_thumbnails": 0,
                "visual_impaired": 0
            },
            "duration": "29.760000",
            "duration_ts": 744000,
            "has_b_frames": 1,
            "height": 2160,
            "index": 0,
            "is_avc": "true",
            "level": 51,
            "nal_length_size": "4",
            "nb_frames": "744",
            "pix_fmt": "yuv420p",
            "profile": "High",
            "r_frame_rate": "25/1",
            "refs": 1,
            "sample_aspect_ratio": "1:1",
            "start_pts": 2000,
            "start_time": "0.080000",
            "tags": {
                "creation_time": "2018-01-17T11:41:58.000000Z",
                "encoder": "AVC Coding",
                "handler_name": "Video Media Handler",
                "language": "und"
            },
            "time_base": "1/25000",
            "width": 3840
        },
        {
            "avg_frame_rate": "0/0",
            "bit_rate": "1536000",
            "bits_per_sample": 16,
            "channels": 2,
            "codec_long_name": "PCM signed 16-bit big-endian",
            "codec_name": "pcm_s16be",
            "codec_tag": "0x736f7774",
            "codec_tag_string": "twos",
            "codec_time_base": "1/48000",
            "codec_type": "audio",
            "disposition": {
                "attached_pic": 0,
                "clean_effects": 0,
                "comment": 0,
                "default": 1,
                "dub": 0,
                "forced": 0,
                "hearing_impaired": 0,
                "karaoke": 0,
                "lyrics": 0,
                "original": 0,
                "timed_thumbnails": 0,
                "visual_impaired": 0
            },
            "duration": "29.760000",
            "duration_ts": 1428480,
            "index": 1,
            "nb_frames": "1428480",
            "r_frame_rate": "0/0",
            "sample_fmt": "s16",
            "sample_rate": "48000",
            "start_pts": 0,
            "start_time": "0.000000",
            "tags": {
                "creation_time": "2018-01-17T11:41:58.000000Z",
                "handler_name": "Sound Media Handler",
                "language": "und"
            },
            "time_base": "1/48000"
        },
        {
            "avg_frame_rate": "0/0",
            "bit_rate": "204800",
            "codec_tag": "0x646d7472",
            "codec_tag_string": "rtmd",
            "codec_type": "data",
            "disposition": {
                "attached_pic": 0,
                "clean_effects": 0,
                "comment": 0,
                "default": 1,
                "dub": 0,
                "forced": 0,
                "hearing_impaired": 0,
                "karaoke": 0,
                "lyrics": 0,
                "original": 0,
                "timed_thumbnails": 0,
                "visual_impaired": 0
            },
            "duration": "29.760000",
            "duration_ts": 744000,
            "index": 2,
            "nb_frames": "744",
            "r_frame_rate": "0/0",
            "start_pts": 0,
            "start_time": "0.000000",
            "tags": {
                "creation_time": "2018-01-17T11:41:58.000000Z",
                "handler_name": "Timed Metadata Media Handler",
                "language": "und",
                "timecode": "05:02:52:20"
            },
            "time_base": "1/25000"
        }
    ]
}